<svg width="5120" height="357" viewBox="0 0 5120 357" fill="none" xmlns="http://www.w3.org/2000/svg">
<g clip-path="url(#clip0_143_7)">
<path d="M2970.83 162.311C2890.65 197.782 2897.14 270.758 2923.13 286.519C2949.13 302.281 3016.6 326.573 3016.6 326.573H4321.6C4321.6 326.573 4379.1 346.073 4379.1 275.573C4379.1 205.073 4284.13 209.277 4284.13 209.277C4284.13 209.277 4324.4 131.408 4231.24 88.4844C4138.08 45.5604 4084.82 101.493 4084.82 101.493C4084.82 101.493 4079.28 39.2384 3988.95 28.1884C3898.62 17.1384 3851.19 76.5684 3851.19 76.5684C3851.19 76.5684 3846.55 24.2754 3759.13 6.44137C3671.71 -11.3926 3596.53 46.4864 3596.53 46.4864C3596.53 46.4864 3565.05 -8.44263 3454.48 1.38037C3343.92 11.2024 3317.17 64.1944 3317.17 64.1944C3317.17 64.1944 3266.02 27.1584 3187.88 57.1914C3109.73 87.2254 3110.3 161.466 3110.3 161.466C3110.3 161.466 3051 126.84 2970.83 162.311ZM330 57.5054C232 66.5054 198 127.005 198 127.005L110 352.505H2204.5V352.005C2204.5 352.005 2193.5 275.005 2069 263.005C1944.5 251.005 1922 280.005 1909.5 279.505C1897 279.005 1863.5 245.505 1778.5 236.005C1693.5 226.505 1624 265.505 1613.5 263.005C1603 260.505 1581.5 213.005 1479 205.005C1376.5 197.005 1337 225.005 1327 222.505C1317 220.005 1307 181.505 1226.5 157.505C1146 133.505 1064 163.005 1052.5 157.505C1041 152.005 1047 98.5054 942 57.5054C837 16.5054 775.5 68.5054 761 64.0054C746.5 59.5054 720.5 23.5054 609.5 24.0054C498.5 24.5054 475 77.0054 458 78.0054C441 79.0054 428 48.5054 330 57.5054Z" fill="black"/>
<path d="M2741.5 299.5C2751.5 298.072 2762 228.5 2945 208C3128 187.5 3161 257 3171.5 257C3182 257 3228 183 3411.5 208C3595 233 3600.5 294 3610.5 292.5C3620.5 291 3659.5 229 3836.5 221.5C4013.5 214 4043.5 284.5 4052.5 284.5C4061.5 284.5 4124 229.5 4295.5 257C4467 284.5 4477 331 4491 330.5C4505 330 4482.5 228.5 4690 191.5C4897.5 154.5 4937.5 222 4952 221.5C4966.5 221 5037.5 118 5197 163C5356.5 208 5197 357 5197 357H-92C-92 357 -164 207.5 -92 179.5C-20 151.5 1 208 12 208C23 208 54.5 109.5 262.5 107.5C470.5 105.5 511 206.5 518 208C525 209.5 615 140 787 173.5C959 207 981 307.5 990 311.5C999 315.5 1078.5 287.5 1246.5 299.5C1414.5 311.5 1432.5 347 1439 347C1445.5 347 1489.5 281 1643.5 281.5C1797.5 282 1836.5 332.5 1845.5 333.5C1854.5 334.5 1914 306 2093.5 311.5C2273 317 2308.5 347 2320 347C2331.5 347.001 2358 279.858 2524 268C2690 256.143 2731.5 300.929 2741.5 299.5Z" fill="black"/>
</g>
<defs>
<clipPath id="clip0_143_7">
<rect width="5120" height="357" fill="white"/>
</clipPath>
</defs>
</svg>
